<?xml version="1.0" encoding="UTF-8"?>
<svg width="17px" height="13px" viewBox="0 0 17 13" version="1.1" xmlns="http://www.w3.org/2000/svg" xmlns:xlink="http://www.w3.org/1999/xlink">
    <title>Combined Shape</title>
    <defs>
        <path d="M9.53975469,0.271462008 C9.90170403,-0.0904873359 10.4885399,-0.0904873359 10.8504892,0.271462008 L16.4114648,5.83243762 C16.4383473,5.85932007 16.463586,5.88784622 16.4870174,5.9178524 C16.4950969,5.92810484 16.5027548,5.93833691 16.5101737,5.94868741 C16.5250281,5.96954882 16.53913,5.99106123 16.5523373,6.01316984 C16.5605653,6.02677676 16.5686061,6.04108567 16.5762374,6.05555405 C16.5849282,6.07215011 16.5930763,6.08877525 16.6007324,6.10567086 C16.6090786,6.12405949 16.6168404,6.14285747 16.6239578,6.16184202 C16.6310121,6.18055095 16.6374325,6.19947984 16.6432471,6.21867201 C16.647564,6.23318925 16.6514731,6.24735189 16.65504,6.26158266 C16.6613378,6.28629663 16.66666,6.31200254 16.6708947,6.33807334 C16.6870729,6.43803461 16.6869478,6.53989909 16.6704856,6.63959054 C16.6661892,6.6660161 16.660838,6.69153255 16.654462,6.71664009 C16.6517358,6.72705029 16.6489944,6.73712379 16.6460802,6.74715771 C16.6395387,6.76991027 16.6319955,6.79251939 16.6236243,6.81472253 C16.6165164,6.83353616 16.6089033,6.85193765 16.6006725,6.87012788 C16.5933523,6.88622555 16.5855149,6.90226087 16.5772367,6.91802848 C16.5686056,6.93461625 16.5594018,6.95094433 16.5496643,6.96704011 C16.5385179,6.98529812 16.5268996,7.00307665 16.5147019,7.02041804 C16.4846462,7.06329765 16.4501196,7.10451735 16.4114648,7.14317214 L16.4869253,7.05787523 C16.4844086,7.06109706 16.481871,7.06430182 16.4793129,7.06748931 L16.4114648,7.14317214 L10.8504892,12.7041477 C10.4885399,13.0660971 9.90170403,13.0660971 9.53975469,12.7041477 C9.17780535,12.3421984 9.17780535,11.7553626 9.53975469,11.3934132 L13.518,7.414 L0.926829268,7.41463415 C0.451518003,7.41463415 0.0597738511,7.0568408 0.0062354583,6.59589275 L0,6.48780488 C0,5.97593121 0.414955598,5.56097561 0.926829268,5.56097561 L13.518,5.56 L9.53975469,1.58219653 C9.20796779,1.25040963 9.18031888,0.729655612 9.45680797,0.366374194 Z" id="path-1"></path>
    </defs>
    <g id="Desktop" stroke="none" stroke-width="1" fill="none" fill-rule="evenodd">
        <g id="Lubrificantes---Negocio---Agricultura" transform="translate(-733.000000, -520.000000)">
            <g id="Group-25" transform="translate(722.000000, 507.000000)">
                <g id="arrow-right" transform="translate(11.121951, 12.975610)">
                    <mask id="mask-2" fill="white">
                        <use xlink:href="#path-1"></use>
                    </mask>
                    <use id="Combined-Shape" fill="#262A34" fill-rule="nonzero" xlink:href="#path-1"></use>
                </g>
            </g>
        </g>
    </g>
</svg>