<?xml version="1.0" encoding="UTF-8"?>
<svg width="24px" height="24px" viewBox="0 0 24 24" version="1.1" xmlns="http://www.w3.org/2000/svg" xmlns:xlink="http://www.w3.org/1999/xlink">
    <title>icn-info-red</title>
    <g id="icn-info-red" stroke="none" stroke-width="1" fill="none" fill-rule="evenodd">
        <rect id="ViewBox" x="0" y="0" width="24" height="24"></rect>
        <path d="M12,17 C12.2833333,17 12.521,16.904 12.713,16.712 C12.9043333,16.5206667 13,16.2833333 13,16 L13,11.975 C13,11.6916667 12.9043333,11.4583333 12.713,11.275 C12.521,11.0916667 12.2833333,11 12,11 C11.7166667,11 11.4793333,11.0956667 11.288,11.287 C11.096,11.479 11,11.7166667 11,12 L11,16.025 C11,16.3083333 11.096,16.5416667 11.288,16.725 C11.4793333,16.9083333 11.7166667,17 12,17 L12,17 Z M12,9 C12.2833333,9 12.521,8.904 12.713,8.712 C12.9043333,8.52066667 13,8.28333333 13,8 C13,7.71666667 12.9043333,7.479 12.713,7.287 C12.521,7.09566667 12.2833333,7 12,7 C11.7166667,7 11.4793333,7.09566667 11.288,7.287 C11.096,7.479 11,7.71666667 11,8 C11,8.28333333 11.096,8.52066667 11.288,8.712 C11.4793333,8.904 11.7166667,9 12,9 Z M12,22 C10.6166667,22 9.31666667,21.7373333 8.1,21.212 C6.88333333,20.6873333 5.825,19.975 4.925,19.075 C4.025,18.175 3.31266667,17.1166667 2.788,15.9 C2.26266667,14.6833333 2,13.3833333 2,12 C2,10.6166667 2.26266667,9.31666667 2.788,8.1 C3.31266667,6.88333333 4.025,5.825 4.925,4.925 C5.825,4.025 6.88333333,3.31233333 8.1,2.787 C9.31666667,2.26233333 10.6166667,2 12,2 C13.3833333,2 14.6833333,2.26233333 15.9,2.787 C17.1166667,3.31233333 18.175,4.025 19.075,4.925 C19.975,5.825 20.6873333,6.88333333 21.212,8.1 C21.7373333,9.31666667 22,10.6166667 22,12 C22,13.3833333 21.7373333,14.6833333 21.212,15.9 C20.6873333,17.1166667 19.975,18.175 19.075,19.075 C18.175,19.975 17.1166667,20.6873333 15.9,21.212 C14.6833333,21.7373333 13.3833333,22 12,22 Z" id="Shape" fill="#E30614" fill-rule="nonzero"></path>
    </g>
</svg>