<?xml version="1.0" encoding="UTF-8"?>
<svg width="18px" height="14px" viewBox="0 0 18 14" version="1.1" xmlns="http://www.w3.org/2000/svg" xmlns:xlink="http://www.w3.org/1999/xlink">
    <title>icn-arrow-back</title>
    <defs>
        <path d="M9,-2 C9.00640623,-2 9.0127984,-1.99993976 9.01917596,-1.99981982 C9.04201977,-1.99940068 9.06566509,-1.9981344 9.08925007,-1.99603359 C9.10984704,-1.99423388 9.12949579,-1.99188777 9.14896122,-1.98898066 C9.16594901,-1.98637192 9.18337526,-1.98329783 9.20072576,-1.97975993 C9.22274608,-1.9753602 9.24443648,-1.97016637 9.26583961,-1.96427903 C9.28146328,-1.95990227 9.29685134,-1.95527128 9.31214252,-1.95026191 C9.33179768,-1.94387751 9.3515792,-1.93668426 9.37105852,-1.92889604 C9.38879565,-1.92180358 9.4060985,-1.91432095 9.42322155,-1.90632664 C9.4438914,-1.89662336 9.46429395,-1.88620608 9.48427695,-1.87512423 C9.49639444,-1.86850117 9.50861311,-1.86139308 9.52070875,-1.85400455 C9.54627495,-1.8382813 9.57113069,-1.82150991 9.5951593,-1.80368649 C9.63432558,-1.77468705 9.67171273,-1.74250083 9.70710678,-1.70710678 L9.61675008,-1.78721404 C9.61966276,-1.78492887 9.62256244,-1.7826279 9.62544899,-1.78031123 L9.70710678,-1.70710678 L15.7071068,4.29289322 C16.0976311,4.68341751 16.0976311,5.31658249 15.7071068,5.70710678 C15.3165825,6.09763107 14.6834175,6.09763107 14.2928932,5.70710678 L9.999,1.413 L10,15 C10,15.5128358 9.61395981,15.9355072 9.11662113,15.9932723 L9,16 C8.44771525,16 8,15.5522847 8,15 L7.999,1.415 L3.70710678,5.70710678 C3.34662282,6.06759074 2.77939176,6.09532028 2.38710056,5.79029539 L2.29289322,5.70710678 C1.90236893,5.31658249 1.90236893,4.68341751 2.29289322,4.29289322 L8.29289322,-1.70710678 L8.37455101,-1.78031123 C8.37743756,-1.7826279 8.38033724,-1.78492887 8.38324992,-1.78721404 C8.39015759,-1.79271552 8.39739696,-1.79824656 8.40469339,-1.80366542 C8.42886931,-1.82150991 8.45372505,-1.8382813 8.47933981,-1.85393257 C8.49138689,-1.86139308 8.50360556,-1.86850117 8.5159379,-1.87532883 C8.53570605,-1.88620608 8.5561086,-1.89662336 8.57690085,-1.90634622 C8.5939015,-1.91432095 8.61120435,-1.92180358 8.62866398,-1.92877451 C8.6484208,-1.93668426 8.66820232,-1.94387751 8.68826359,-1.95045332 C8.70314866,-1.95527128 8.71853672,-1.95990227 8.73400703,-1.96415486 C8.75556352,-1.97016637 8.77725392,-1.9753602 8.7992059,-1.97983485 C8.81662474,-1.98329783 8.83405099,-1.98637192 8.85153313,-1.9889822 C8.89963791,-1.99623881 8.94937972,-2 9,-2 L8.91074993,-1.99603359 C8.93400511,-1.99810502 8.95731895,-1.99936511 8.9806455,-1.99981385 Z" id="path-1"></path>
    </defs>
    <g id="icn-arrow-back" stroke="none" stroke-width="1" fill="none" fill-rule="evenodd">
        <mask id="mask-2" fill="white">
            <use xlink:href="#path-1"></use>
        </mask>
        <use id="Combined-Shape" fill="#000000" fill-rule="nonzero" transform="translate(9.000000, 7.000000) rotate(-90.000000) translate(-9.000000, -7.000000) " xlink:href="#path-1"></use>
    </g>
</svg>